<svg width="25" height="24" viewBox="0 0 25 24" fill="none" xmlns="http://www.w3.org/2000/svg">
	<path fill="#ffffff" d="M4.23632 11.4512C4.31969 11.451 4.40161 11.4293 4.47411 11.3882C4.52897 11.3569 4.57712 11.3151 4.61579 11.2652C4.65446 11.2153 4.68289 11.1583 4.69945 11.0973C4.71601 11.0364 4.72037 10.9728 4.71229 10.9102C4.7042 10.8476 4.68383 10.7872 4.65234 10.7324C3.84863 9.3379 3.78271 8.18751 4.28857 7.31446C4.98486 6.11475 6.90624 5.67139 9.4287 6.12843C9.55396 6.1511 9.68309 6.12324 9.78787 6.05095C9.89264 5.97867 9.96452 5.86783 9.98779 5.74268C9.99906 5.68058 9.99798 5.61686 9.98462 5.55517C9.97126 5.49349 9.94588 5.43504 9.90992 5.38316C9.87396 5.33129 9.82813 5.28701 9.77505 5.25285C9.72198 5.21869 9.66269 5.19533 9.60058 5.18409C8.17529 4.92628 6.8662 4.93116 5.82177 5.19874C4.7329 5.47755 3.91747 6.04249 3.45605 6.8335C2.77245 8.01466 2.83593 9.50587 3.81835 11.2095C3.86053 11.283 3.92141 11.3441 3.99481 11.3866C4.06821 11.429 4.15153 11.4513 4.23632 11.4512ZM17.6567 6.01807C19.231 6.03858 20.2256 6.47266 20.7227 7.3296C21.4165 8.52491 20.8457 10.3965 19.1958 12.3355C19.1364 12.4053 19.0983 12.4907 19.086 12.5815C19.0737 12.6723 19.0876 12.7647 19.1262 12.8479C19.1648 12.931 19.2264 13.0013 19.3037 13.0505C19.381 13.0997 19.4708 13.1258 19.5625 13.1255C19.6323 13.1256 19.7012 13.1105 19.7646 13.0813C19.828 13.0522 19.8843 13.0096 19.9297 12.9565C20.8633 11.8594 21.5093 10.7329 21.7974 9.69923C22.0972 8.62501 22.0137 7.63819 21.5532 6.84864C20.8794 5.68751 19.5937 5.0835 17.667 5.05811H17.6602C17.5329 5.05734 17.4105 5.10716 17.3199 5.19662C17.2293 5.28609 17.178 5.40786 17.1772 5.53516C17.1765 5.66246 17.2263 5.78486 17.3158 5.87542C17.4052 5.96598 17.527 6.0173 17.6543 6.01807H17.6567ZM15.9409 19.2583C15.8317 19.1932 15.7011 19.1738 15.5777 19.2044C15.4542 19.2351 15.3479 19.3132 15.2817 19.4219C14.4805 20.7476 13.4961 21.4775 12.5098 21.4775C11.1186 21.4775 9.77538 20.0464 8.90966 17.6484C8.86612 17.5289 8.77705 17.4313 8.66188 17.3772C8.54671 17.323 8.41479 17.3166 8.29492 17.3594C8.23525 17.3803 8.18031 17.4129 8.13326 17.4551C8.08621 17.4974 8.04797 17.5485 8.02075 17.6056C7.99352 17.6627 7.97785 17.7246 7.97462 17.7877C7.97139 17.8509 7.98068 17.9141 8.00195 17.9736C8.49023 19.3296 9.14794 20.4517 9.90624 21.2188C10.6929 22.0166 11.5933 22.4395 12.5098 22.4395C13.8467 22.4395 15.124 21.5444 16.106 19.9194C16.1386 19.8654 16.1602 19.8054 16.1696 19.7429C16.179 19.6805 16.1759 19.6168 16.1606 19.5555C16.1452 19.4943 16.1179 19.4366 16.0802 19.386C16.0425 19.3353 15.9952 19.2926 15.9409 19.2603V19.2583ZM21.0791 15.5303C20.8208 15.529 20.5663 15.5914 20.3379 15.7121C20.1096 15.8328 19.9146 16.0079 19.7702 16.2221C19.6257 16.4362 19.5364 16.6826 19.5101 16.9395C19.4837 17.1964 19.5212 17.4559 19.6191 17.6948C17.5781 18.647 13.7695 17.9287 10.2505 15.9067C8.64355 14.9839 7.21533 13.8628 6.11962 12.665C6.0334 12.5714 5.91371 12.5155 5.78655 12.5096C5.65938 12.5036 5.535 12.5481 5.44042 12.6333C5.39355 12.6756 5.35552 12.7268 5.32854 12.784C5.30155 12.8411 5.28613 12.903 5.28318 12.9661C5.28023 13.0291 5.2898 13.0922 5.31134 13.1516C5.33288 13.211 5.36597 13.2655 5.40868 13.312C6.57031 14.5815 8.07861 15.7671 9.7705 16.7388C11.7373 17.8682 13.7876 18.625 15.6997 18.9268C16.2648 19.0185 16.8362 19.066 17.4087 19.0689C18.5376 19.0689 19.5083 18.8589 20.2656 18.4443C20.473 18.571 20.7069 18.6479 20.9489 18.6689C21.191 18.6899 21.4346 18.6546 21.6608 18.5656C21.8869 18.4767 22.0893 18.3365 22.2521 18.1562C22.4149 17.9758 22.5338 17.7602 22.5992 17.5262C22.6647 17.2922 22.6751 17.0463 22.6295 16.8076C22.5839 16.5689 22.4836 16.3441 22.3365 16.1507C22.1894 15.9573 21.9995 15.8006 21.7817 15.693C21.5638 15.5853 21.324 15.5297 21.081 15.5303H21.0791ZM21.0791 17.7109C20.9405 17.7109 20.8059 17.6642 20.6973 17.5781C20.6673 17.5368 20.6311 17.5004 20.5898 17.4702C20.5052 17.36 20.4603 17.2243 20.4625 17.0853C20.4648 16.9463 20.514 16.8122 20.6021 16.7047C20.6903 16.5972 20.8122 16.5228 20.9481 16.4934C21.084 16.464 21.2258 16.4815 21.3505 16.543C21.4751 16.6044 21.5753 16.7063 21.6348 16.8319C21.6942 16.9576 21.7094 17.0997 21.6778 17.235C21.6463 17.3704 21.5698 17.4911 21.4609 17.5775C21.352 17.6639 21.2171 17.711 21.0781 17.7109H21.0791Z"/>
	<path fill="#ffffff" d="M4.00826 15.5327C4.03609 14.4946 4.61422 13.2378 5.65279 11.9604C6.78511 10.5713 8.42086 9.22605 10.2592 8.16892C11.8828 7.2363 13.4428 6.6113 15.0478 6.26902C15.1104 6.25681 15.17 6.23224 15.223 6.19676C15.276 6.16128 15.3213 6.11559 15.3565 6.06236C15.3916 6.00913 15.4158 5.94943 15.4276 5.88675C15.4394 5.82408 15.4386 5.75967 15.4252 5.69731C15.4119 5.63495 15.3862 5.57587 15.3498 5.52354C15.3133 5.47121 15.2668 5.42667 15.2129 5.39252C15.159 5.35837 15.0989 5.3353 15.036 5.32466C14.9731 5.31402 14.9087 5.31602 14.8466 5.33054C13.145 5.69333 11.4882 6.35593 9.77877 7.33689C5.66842 9.69773 2.92476 13.1543 3.04976 15.792C2.73699 15.9988 2.50807 16.3102 2.40402 16.6704C2.29997 17.0307 2.32758 17.4162 2.48191 17.7579C2.63624 18.0996 2.9072 18.3752 3.24626 18.5354C3.58531 18.6955 3.9703 18.7296 4.33225 18.6317C4.6942 18.5338 5.00946 18.3102 5.22156 18.001C5.43366 17.6918 5.52873 17.3172 5.48974 16.9443C5.45075 16.5713 5.28025 16.2245 5.00879 15.9658C4.73732 15.7072 4.38263 15.5536 4.00826 15.5327ZM3.92086 17.7109C3.80033 17.71 3.68276 17.6735 3.58297 17.6059C3.48318 17.5383 3.40563 17.4427 3.36011 17.3311C3.31459 17.2195 3.30312 17.0969 3.32717 16.9788C3.35121 16.8607 3.40969 16.7524 3.49522 16.6674C3.58075 16.5825 3.68951 16.5248 3.80778 16.5016C3.92606 16.4784 4.04855 16.4908 4.15983 16.5371C4.2711 16.5834 4.36616 16.6617 4.43304 16.7619C4.49991 16.8622 4.5356 16.98 4.5356 17.1006C4.53483 17.263 4.46967 17.4184 4.35443 17.5328C4.23918 17.6473 4.08326 17.7113 3.92086 17.7109Z" />
	<path fill="#ffffff" d="M12.5097 3.70313C12.7641 3.70377 13.0148 3.64277 13.2404 3.52533C13.466 3.40789 13.6598 3.23752 13.8051 3.02881C14.6787 3.59961 15.4653 4.73779 16.042 6.25732C16.6767 7.93652 17.0107 9.93799 17.0107 12.0454C17.0107 13.8608 16.7573 15.5781 16.2783 17.104C16.2591 17.164 16.2521 17.2273 16.2576 17.2901C16.2631 17.3529 16.2811 17.414 16.3105 17.4697C16.3398 17.5259 16.3799 17.5757 16.4285 17.6162C16.4771 17.6568 16.5332 17.6873 16.5937 17.7061C16.7153 17.7436 16.8468 17.7317 16.9597 17.6728C17.0725 17.6139 17.1575 17.5128 17.1963 17.3916C17.705 15.7734 17.9741 13.957 17.9741 12.0454C17.9741 9.74219 17.5947 7.56445 16.8769 5.74658C16.1733 3.96533 15.2104 2.69971 14.0869 2.07666C14.0772 1.76701 13.9765 1.46708 13.7974 1.21429C13.6184 0.961494 13.3688 0.767041 13.0799 0.655197C12.791 0.543353 12.4755 0.51907 12.1729 0.58538C11.8703 0.651691 11.5939 0.805656 11.3783 1.02806C11.1626 1.25047 11.0172 1.53146 10.9602 1.83598C10.9033 2.14049 10.9373 2.45504 11.0579 2.74037C11.1786 3.02569 11.3807 3.26915 11.6389 3.44037C11.897 3.61159 12.1999 3.70297 12.5097 3.70313ZM12.5097 1.52246C12.6303 1.52333 12.7478 1.55986 12.8476 1.62745C12.9474 1.69505 13.025 1.79067 13.0705 1.90227C13.116 2.01387 13.1275 2.13645 13.1034 2.25456C13.0794 2.37266 13.0209 2.48101 12.9354 2.56593C12.8498 2.65085 12.7411 2.70854 12.6228 2.73174C12.5045 2.75493 12.382 2.74259 12.2708 2.69627C12.1595 2.64995 12.0644 2.57172 11.9975 2.47144C11.9307 2.37117 11.895 2.25334 11.895 2.13281C11.8958 1.97041 11.9609 1.81495 12.0762 1.70053C12.1914 1.58611 12.3473 1.52207 12.5097 1.52246ZM12.2558 10.8828C11.9684 10.9444 11.714 11.1102 11.5417 11.3483C11.3693 11.5864 11.2913 11.8798 11.3226 12.1721C11.3539 12.4643 11.4924 12.7346 11.7112 12.9308C11.9301 13.127 12.2139 13.2351 12.5078 13.2344C12.5925 13.2343 12.6769 13.2253 12.7597 13.2075C12.9141 13.1762 13.0608 13.1145 13.1911 13.0261C13.3215 12.9376 13.433 12.8242 13.5191 12.6923C13.6053 12.5604 13.6644 12.4127 13.693 12.2578C13.7216 12.1028 13.7191 11.9438 13.6858 11.7898C13.6524 11.6359 13.5888 11.4901 13.4986 11.3609C13.4084 11.2317 13.2935 11.1217 13.1604 11.0374C13.0274 10.953 12.8789 10.8959 12.7236 10.8693C12.5683 10.8428 12.4093 10.8474 12.2558 10.8828Z" />
</svg>
