<svg width="24" height="24" viewBox="0 0 24 24" fill="none" xmlns="http://www.w3.org/2000/svg">
<path d="M14.1315 0C13.9579 0 13.7968 0.0373357 13.648 0.087114C13.9641 0.298676 14.1377 0.578688 14.2244 0.896032C14.2307 0.939588 14.243 0.970702 14.2492 1.01426C14.2555 1.05159 14.2616 1.08893 14.2616 1.12626C14.2864 1.67384 14.1191 1.74228 14.0013 2.06585C13.8216 2.48275 13.8712 2.93077 14.0881 3.29167C14.1067 3.33523 14.1315 3.38501 14.1625 3.42856C13.9269 1.85429 15.2347 1.61783 15.4764 1.12626C15.495 0.696913 15.1418 0.410681 14.8628 0.211563C14.5963 0.0497796 14.3546 0 14.1315 0ZM16.1025 0.354679C16.0776 0.497795 16.0962 0.46046 16.0901 0.53513C16.0839 0.584909 16.0839 0.647135 16.0777 0.696913C16.0653 0.746693 16.0529 0.796471 16.0343 0.846253C16.0219 0.896032 16.0033 0.945811 15.9847 0.99559C15.9599 1.04537 15.9413 1.08893 15.9165 1.13871C15.8979 1.16361 15.8855 1.18848 15.8669 1.21338C15.8546 1.23204 15.8421 1.25071 15.8298 1.26938C15.7988 1.31294 15.7678 1.35649 15.7368 1.39383C15.6996 1.43116 15.6686 1.47472 15.6252 1.50583C15.6252 1.51206 15.6252 1.51206 15.6252 1.51206C15.588 1.54317 15.5508 1.58051 15.5075 1.61162C15.3773 1.71118 15.2285 1.78585 15.0922 1.87919C15.0488 1.9103 15.0054 1.93519 14.9682 1.97252C14.9248 2.00363 14.8877 2.03475 14.8505 2.07208C14.8071 2.10941 14.7761 2.14675 14.7389 2.19031C14.7079 2.22764 14.6707 2.2712 14.6459 2.31476C14.6149 2.35831 14.584 2.40187 14.5592 2.44543C14.5344 2.49521 14.5158 2.53876 14.491 2.58854C14.4724 2.63832 14.4538 2.68188 14.4414 2.73166C14.4228 2.78766 14.4104 2.83744 14.398 2.88722C14.3918 2.91212 14.3918 2.94322 14.3856 2.96811C14.3794 2.99301 14.3794 3.01789 14.3732 3.04278C14.3732 3.09256 14.367 3.14856 14.367 3.19834C14.367 3.23568 14.367 3.27301 14.3732 3.31035C14.3732 3.36013 14.3794 3.4099 14.3918 3.46591C14.398 3.51569 14.4104 3.56547 14.4228 3.61525C14.4414 3.66503 14.4538 3.71481 14.4724 3.76458C14.4848 3.7957 14.5034 3.82681 14.5158 3.8517L13.0902 3.2979C12.8485 3.22945 12.613 3.16723 12.3713 3.11123C12.2411 3.08012 12.111 3.049 11.9808 3.01789C11.6089 2.94322 11.2308 2.88722 10.8528 2.84989C10.8404 2.84989 10.8342 2.84366 10.8218 2.84366C10.4499 2.80632 10.0842 2.78766 9.71232 2.78766C9.4396 2.78766 9.16689 2.80009 8.90037 2.81877C8.52229 2.84367 8.14421 2.89344 7.76613 2.95566C7.67316 2.96809 7.58019 2.98677 7.48722 3.00544C7.29508 3.04277 7.10914 3.08633 6.9294 3.12989C6.83642 3.15479 6.74345 3.17967 6.65048 3.20456C6.55751 3.24189 6.47074 3.28545 6.38397 3.32278C6.31579 3.3539 6.24761 3.38501 6.17943 3.41612C6.16705 3.42235 6.15463 3.42235 6.14844 3.42856C6.08646 3.45967 6.03068 3.48456 5.9749 3.51567C5.9563 3.5219 5.94391 3.52811 5.93151 3.53434C5.86333 3.56545 5.79516 3.60278 5.73937 3.6339C5.69599 3.65256 5.6526 3.67745 5.61541 3.69612C5.59682 3.70856 5.57202 3.72102 5.55963 3.72723C5.50385 3.75834 5.44806 3.78946 5.39848 3.82057C5.3427 3.85168 5.29311 3.88279 5.24973 3.9139C5.20634 3.94502 5.16295 3.96991 5.12577 4.00102C5.11956 4.00725 5.11338 4.00725 5.10717 4.01345C5.06998 4.03835 5.0266 4.06946 4.98941 4.10057C4.98941 4.10057 4.9832 4.1068 4.97702 4.11301C4.94603 4.13791 4.91504 4.16278 4.88405 4.18767C4.87167 4.1939 4.85925 4.20634 4.84686 4.21257C4.81587 4.23747 4.78488 4.26858 4.7539 4.29347C4.74769 4.3059 4.7353 4.31213 4.72909 4.31837C4.6919 4.3557 4.65472 4.38681 4.61753 4.42415C4.61132 4.42415 4.61132 4.43038 4.60514 4.43658C4.56795 4.46769 4.53076 4.50503 4.49358 4.54236C4.48737 4.54859 4.48737 4.5548 4.48119 4.5548C4.4502 4.58591 4.41921 4.61702 4.38822 4.65436C4.37583 4.66679 4.35723 4.67926 4.34483 4.69169C4.31384 4.72903 4.27666 4.76636 4.23947 4.8037C4.23326 4.81613 4.22087 4.82236 4.21467 4.83481C4.16508 4.88459 4.12169 4.93437 4.07211 4.98415C4.0659 4.99038 4.05972 4.99658 4.05352 5.00281C3.95435 5.1086 3.84898 5.21438 3.73742 5.30771C3.62585 5.40727 3.50809 5.50061 3.39033 5.5815C3.26636 5.66862 3.1486 5.74328 3.01844 5.81795C2.89448 5.8864 2.76432 5.94862 2.62797 6.00463C2.49781 6.06063 2.36145 6.11041 2.2251 6.15396C1.96478 6.20997 1.69826 6.31575 1.46893 6.33441C1.41935 6.33441 1.36357 6.34685 1.31398 6.35308C1.2582 6.36552 1.20862 6.37798 1.15903 6.39042C1.10945 6.40908 1.05986 6.42775 1.01028 6.44642C0.960696 6.46509 0.911112 6.48998 0.861528 6.51487C0.818141 6.54598 0.768557 6.57087 0.72517 6.60198C0.681785 6.63309 0.638397 6.67043 0.601209 6.70776C0.557824 6.73888 0.514437 6.78243 0.477248 6.81976C0.44006 6.86332 0.402871 6.90066 0.371882 6.94421C0.340892 6.99399 0.303704 7.03755 0.27891 7.08733C0.247921 7.13089 0.216932 7.18067 0.192138 7.23044C0.167336 7.28645 0.142555 7.33623 0.12396 7.39223C0.105366 7.44201 0.0867718 7.49801 0.0681776 7.55401C0.0557912 7.60379 0.0433756 7.65357 0.0371882 7.70335C0.0371882 7.70959 0.0309806 7.71579 0.0309806 7.72202C0.0185941 7.77802 0.0185941 7.85269 0.0123863 7.89003C0.00617873 7.93358 0 7.97092 0 8.01448C0 8.03938 0 8.07048 0.00620757 8.09537C0.0124151 8.13893 0.0185939 8.17626 0.0310096 8.2136C0.043396 8.25093 0.0558116 8.28826 0.0743942 8.3256C0.0743942 8.33183 0.0743942 8.33183 0.0743942 8.33183C0.0929885 8.36917 0.117782 8.4065 0.142572 8.44383C0.167374 8.48117 0.192159 8.5185 0.223148 8.55584C0.254138 8.58695 0.291326 8.62428 0.328515 8.6554C0.365703 8.69273 0.402892 8.72384 0.446276 8.75495C0.59503 8.88563 0.632219 8.92918 0.824358 9.02874C0.855347 9.04741 0.886339 9.05985 0.923528 9.07852C0.929736 9.07852 0.935914 9.08475 0.942122 9.08475C0.942122 9.09719 0.942122 9.10342 0.94833 9.11587C0.954538 9.16565 0.966925 9.21542 0.97932 9.26521C0.991706 9.32121 1.01031 9.37099 1.02891 9.41454C1.0475 9.45188 1.0599 9.48921 1.07849 9.52655C1.0847 9.53899 1.09088 9.55145 1.09708 9.55766C1.12189 9.60744 1.14667 9.651 1.17146 9.69455C1.20245 9.73811 1.23344 9.78167 1.26443 9.82523C1.29542 9.86256 1.33261 9.90612 1.3698 9.94345C1.40698 9.98079 1.44417 10.0119 1.48756 10.0492C1.48756 10.0492 1.49377 10.0555 1.49995 10.0555C1.53714 10.0866 1.57432 10.1177 1.61151 10.1426C1.6549 10.1737 1.69828 10.1986 1.74787 10.2235C1.79126 10.2484 1.84084 10.2733 1.89042 10.2919C1.92761 10.3106 1.971 10.323 2.01438 10.3355C2.02059 10.3417 2.02677 10.3417 2.03919 10.3479C2.06399 10.3542 2.09497 10.3604 2.11976 10.3666C2.10117 10.7026 2.09496 11.0199 2.14456 11.1319C2.20034 11.2564 2.47306 10.8768 2.74577 10.4413C2.70858 10.8706 2.68379 11.3746 2.74577 11.524C2.81395 11.6795 3.18583 11.1942 3.50813 10.659C7.90253 9.63856 11.9127 12.6876 12.3341 16.9935C12.2536 16.3215 11.4292 15.9481 11.0511 16.0415C10.8652 16.5019 10.5491 17.093 10.0409 17.4602C10.0842 17.0495 10.0657 16.6264 9.97888 16.2157C9.84252 16.7881 9.57601 17.3233 9.21032 17.7837C8.62151 17.8273 8.03269 17.5411 7.72279 17.1117C7.69799 17.093 7.6918 17.0557 7.67321 17.0308C7.65461 16.9873 7.63602 16.9437 7.62362 16.9001C7.60503 16.8566 7.59263 16.813 7.58644 16.7695C7.58023 16.7259 7.58023 16.6824 7.58023 16.6326C7.58023 16.6015 7.58023 16.5704 7.58023 16.5392C7.58644 16.4957 7.59882 16.4521 7.61122 16.4086C7.6236 16.365 7.63602 16.3215 7.6546 16.2779C7.67941 16.2343 7.69799 16.1908 7.72898 16.1472C7.83435 15.8485 7.83435 15.6059 7.64221 15.4628C7.60502 15.4379 7.56783 15.4192 7.52444 15.4005C7.49964 15.3943 7.46866 15.3819 7.44387 15.3756C7.42528 15.3694 7.41288 15.3632 7.39429 15.357C7.3509 15.3445 7.30751 15.3321 7.26413 15.3259C7.22074 15.3134 7.17735 15.3072 7.13397 15.3072C7.09058 15.301 7.041 15.2948 6.99761 15.2948C6.96662 15.2948 6.93563 15.301 6.90464 15.301C6.85506 15.301 6.81167 15.3072 6.76828 15.3197C6.7249 15.3259 6.68151 15.3321 6.63812 15.3445C6.59474 15.357 6.55135 15.3695 6.50797 15.3881C6.46458 15.4068 6.42739 15.4254 6.384 15.4441C6.34682 15.4628 6.30963 15.4877 6.26624 15.5063C4.8221 16.4521 5.68363 18.6673 6.66911 19.3082C6.29723 19.3767 5.91915 19.4576 5.81379 19.5385C5.80758 19.5447 5.8014 19.5509 5.8014 19.5509C6.06792 19.7127 6.34683 19.8496 6.63813 19.9678C7.03481 20.0985 7.45627 20.2167 7.64222 20.2665V20.2727C8.15665 20.3785 8.67729 20.4158 9.20412 20.3847C11.9499 20.1918 14.1997 18.0949 14.6088 15.3321C14.6212 15.3881 14.6336 15.4379 14.646 15.4939C14.6646 15.6059 14.6894 15.7241 14.7018 15.8423C14.7018 15.8423 14.7018 15.8423 14.7018 15.8486C14.7142 15.9046 14.7204 15.9606 14.7266 16.0104C14.7266 16.0228 14.7266 16.029 14.7266 16.0353C14.7328 16.0913 14.739 16.1473 14.739 16.197C14.7452 16.2655 14.7514 16.3339 14.7514 16.4024C14.7514 16.4335 14.7514 16.4646 14.7514 16.5019C14.7514 16.5331 14.7576 16.5704 14.7576 16.6015C14.7576 16.6388 14.7514 16.6762 14.7514 16.7135C14.7514 16.7446 14.7514 16.7757 14.7514 16.8006C14.7514 16.8442 14.7451 16.8815 14.7451 16.9251C14.7451 16.95 14.7451 16.9749 14.7389 17.006C14.7389 17.0495 14.7327 17.0931 14.7327 17.1429C14.7265 17.1615 14.7265 17.1802 14.7265 17.1989C14.7203 17.2486 14.7141 17.2922 14.7079 17.342C14.7079 17.3606 14.7079 17.3793 14.7017 17.398C14.6955 17.4602 14.6831 17.5162 14.6769 17.5784V17.5847V17.5909C14.6645 17.6469 14.6521 17.7091 14.6397 17.7651C14.6397 17.7714 14.6397 17.7776 14.6397 17.7838C14.6273 17.8398 14.6149 17.8958 14.6025 17.9518C14.6025 17.958 14.5963 17.9705 14.5963 17.9767C14.5839 18.0327 14.5715 18.0887 14.5529 18.1447C14.5529 18.1509 14.5529 18.1571 14.5529 18.1634C14.5344 18.2256 14.5158 18.2816 14.5034 18.3376C14.4972 18.3438 14.4972 18.35 14.4972 18.35C14.4786 18.4123 14.46 18.4745 14.4414 18.5367C14.4166 18.5989 14.398 18.6549 14.3732 18.7172C14.3484 18.7794 14.3298 18.8416 14.305 18.8976C14.2802 18.9598 14.2554 19.0158 14.2306 19.0781H14.2244C14.1996 19.1341 14.1748 19.1963 14.1438 19.2523C14.1376 19.271 14.1315 19.2834 14.1253 19.2958C14.119 19.3021 14.119 19.3083 14.1129 19.3145C13.71 20.1297 13.115 20.8452 12.3712 21.4053C12.3216 21.4364 12.2721 21.4737 12.2225 21.511C12.2101 21.5235 12.1915 21.5297 12.1791 21.5421C12.1357 21.5733 12.0923 21.6044 12.0427 21.6355L12.0613 21.6728H12.0675C12.1543 21.6604 12.2411 21.6479 12.3278 21.6355H12.334C12.4952 21.6106 12.6563 21.5795 12.8175 21.5484C12.8609 21.5421 12.9105 21.5297 12.9539 21.5173C12.9848 21.511 13.0096 21.5048 13.0406 21.4986C13.084 21.4924 13.1274 21.4799 13.1708 21.4737C13.208 21.4613 13.2452 21.455 13.2823 21.4426C13.9022 21.2932 14.5034 21.0879 15.0798 20.8452C14.0943 22.1955 12.7741 23.2844 11.2308 24C11.9436 23.9502 12.6563 23.832 13.3443 23.6329C15.8421 22.8924 17.9433 21.2061 19.2015 18.9349C18.9474 20.3723 18.3771 21.7413 17.5342 22.936C18.1354 22.5377 18.687 22.0773 19.1891 21.5546C20.5774 20.0985 21.4886 18.2505 21.7984 16.2655C22.0092 17.2487 22.0712 18.2629 21.9782 19.2647C26.4532 12.9987 22.3501 6.5025 20.6332 4.79133C20.627 4.7789 20.6208 4.77266 20.6208 4.76022C20.6146 4.76645 20.6146 4.76645 20.6146 4.77266C20.6146 4.76643 20.6146 4.76643 20.6084 4.76022C20.6084 4.83489 20.6022 4.90956 20.596 4.98423C20.5774 5.12734 20.5588 5.26424 20.534 5.40113C20.5031 5.53802 20.4659 5.67492 20.4287 5.81181C20.3853 5.94248 20.3357 6.07938 20.2799 6.21005C20.2241 6.33449 20.1622 6.46517 20.094 6.58962C20.0258 6.70784 19.9514 6.83229 19.8709 6.94429C19.7903 7.06252 19.7035 7.17453 19.6167 7.2803C19.5238 7.39231 19.4246 7.49187 19.3254 7.59143C19.2634 7.64743 19.2077 7.69721 19.1457 7.74699C19.0961 7.79055 19.0527 7.82788 19.0031 7.87144C18.8916 7.95855 18.78 8.03944 18.656 8.11411C18.5383 8.18878 18.4143 8.26345 18.2904 8.32568C18.1602 8.3879 18.03 8.4439 17.8999 8.49991C17.7697 8.54968 17.6334 8.59324 17.497 8.63058C17.3607 8.66791 17.2181 8.69902 17.0817 8.72391C16.9392 8.74881 16.7966 8.76125 16.6603 8.77369C16.5611 8.77992 16.4619 8.78613 16.3628 8.78613C16.2202 8.78613 16.0777 8.77369 15.9413 8.76123C15.7987 8.74879 15.6562 8.73011 15.5198 8.699C15.3773 8.6741 15.2409 8.63678 15.1046 8.59322H15.0984C15.2347 8.58079 15.3711 8.56832 15.5074 8.54344C15.65 8.51854 15.7863 8.48744 15.9227 8.4501C16.0591 8.41277 16.1954 8.36921 16.3256 8.31943C16.4619 8.26965 16.5921 8.20743 16.716 8.1452C16.8462 8.08298 16.964 8.01453 17.0879 7.93986C17.2057 7.85897 17.3235 7.77808 17.435 7.69097C17.5466 7.60385 17.6519 7.51052 17.7511 7.41096C17.8565 7.31762 17.9495 7.21184 18.0424 7.10606C18.1354 6.99406 18.2222 6.88205 18.3027 6.77005C18.3151 6.75138 18.3275 6.72649 18.3399 6.70782C18.4019 6.60826 18.4639 6.5087 18.5197 6.40914C18.5879 6.2847 18.6498 6.16025 18.7056 6.02958C18.7614 5.89891 18.811 5.76823 18.8544 5.63134C18.8978 5.50067 18.9287 5.36378 18.9597 5.22688C18.9845 5.08377 19.0093 4.94687 19.0217 4.80998C19.0341 4.66686 19.0465 4.52375 19.0465 4.38685C19.0465 4.28729 19.0403 4.18774 19.0341 4.08818C19.0217 3.94506 19.0031 3.80817 18.9845 3.67127C18.9597 3.52816 18.9288 3.39126 18.8916 3.25437C18.8482 3.1237 18.8048 2.9868 18.7552 2.85614C18.7056 2.72546 18.6437 2.59479 18.5817 2.47034C18.5135 2.34589 18.4453 2.22144 18.3709 2.10322C18.2904 1.98499 18.2098 1.87299 18.123 1.76098C18.0301 1.6552 17.9371 1.54942 17.8379 1.44364C17.7883 1.39386 17.7325 1.33786 17.6768 1.28808C17.3979 1.07029 17.1065 0.864952 16.8152 0.678281C16.7719 0.653382 16.7347 0.634723 16.6913 0.616055C16.4867 0.485385 16.2946 0.416902 16.1025 0.354679Z" fill="currentColor"/>
</svg>
