<svg width="24" height="27" viewBox="0 0 24 27" fill="none" xmlns="http://www.w3.org/2000/svg">
<path d="M11.3057 0.193726C11.7318 -0.0647535 12.2681 -0.064734 12.708 0.193726L23.2988 6.2406C23.7389 6.48575 24 6.94959 24 7.45349V19.5472C23.9999 20.051 23.7388 20.514 23.2988 20.7592L12.708 26.806C12.2817 27.0646 11.7457 27.0646 11.3057 26.806L0.714844 20.7592C0.49489 20.6366 0.316122 20.4731 0.192383 20.2552C0.054915 20.0374 4.87718e-05 19.8059 0 19.5609V7.45349C0 6.94961 0.261025 6.48576 0.714844 6.2406L11.3057 0.193726ZM16.752 7.54822C15.9955 7.54822 15.3906 8.1478 15.3906 8.89685V15.6107L9.69629 8.86951L9.2832 8.37927C8.82932 7.82098 8.07312 7.56189 7.42676 7.56189C6.53284 7.56194 5.88672 8.14772 5.88672 8.86951V18.1166C5.88672 18.8656 6.49162 19.4652 7.24805 19.4652C8.00449 19.4652 8.60938 18.8656 8.60938 18.1166V11.4164L14.7158 18.6342C15.1697 19.1925 15.9268 19.4515 16.5732 19.4515C17.4671 19.4514 18.1133 18.8657 18.1133 18.1439V8.89685C18.1133 8.14785 17.5083 7.5483 16.752 7.54822Z" fill="#ffffff"/>
</svg>
